<svg xmlns="http://www.w3.org/2000/svg" width="128" height="121"><path fill="#858642" d="M118.536 9.515l-7.213 2.296.243-3.392z"/><path fill="#423c26" d="M111.502 8.409l-.241 3.384-5.093-4.222z"/><path fill="#999a4a" d="M118.624 9.554l-2.188 6.456-5.083-4.14z"/><path fill="#76573a" d="M118.673 9.605l3.686 11.23-5.87-4.782z"/><path fill="#593b1f" d="M122.352 20.911l-8.128 1.821 2.244-6.616z"/><path fill="#7c593b" d="M127.919 22.086l-4.832 8.26-.631-9.383z"/><path fill="#9a7c5a" d="M127.936 14.453v7.571l-5.454-1.117z"/><path fill="#8d6b4f" d="M127.897 14.4l-5.463 6.462-3.706-11.292z"/><path fill="#a68d6f" d="M121.712 5.347l6.171 8.972-9.127-4.808.058-.017-.083-.013z"/><path fill="#9fa251" d="M121.662 5.309l-2.976 4.126-.011-.03-.017.047L107.23.126z"/><path fill="#8d8e48" d="M118.562 9.454L88.881 4.787 107.06.068z"/><path fill="#656937" d="M111.223 11.844l-13.906 4.428.008-.017-.064.032-8.465-11.449 17.249 2.714z"/><path d="M116.414 16.074l-2.259 6.661-16.83-6.398 13.955-4.443 5.134 4.181z" fill="#897455"/><path fill="#8a8b47" d="M88.723 4.848l8.478 11.466-25.513 12.56z"/><path d="M114.136 22.794l-3.886 11.581-12.897-17.961c1.467.672 15.03 5.727 16.784 6.379z" fill="#736246"/><path fill="#544a2f" d="M89.231 31.431l8.024-15.044 12.94 18.023z"/><path fill="#606432" d="M97.176 16.4l-8.013 15.023-17.466-2.482z"/><path fill="#878645" d="M89.118 31.48L67.676 57.344l.004-.032-.002.002 3.939-28.32z"/><path fill="#646637" d="M110.095 34.459L67.757 57.347l21.435-25.856z"/><path fill="#323b1c" d="M86.691 47.183L83.097 66.48l-15.404-9.027z"/><path fill="#44592e" d="M110.137 34.508L83.176 66.404l3.587-19.259z"/><path fill="#896646" d="M110.214 34.738l-2.184 32.8-11.127 14.36z"/><path fill="#868545" d="M110.208 34.525L96.813 81.983 83.158 66.525z"/><path fill="#534a2d" d="M83.116 66.574L96.771 82.03l-33.838 8.42z"/><path fill="#44592e" d="M83.065 66.534L62.892 90.398l4.761-32.894z"/><path fill="#a03c24" d="M67.576 57.592l-4.754 32.843-9.899-10.236v-.002h-.002z"/><path fill="#da5e2a" d="M67.497 57.56l.036-.019-14.659 22.609-9.527-9.607z"/><path fill="#534a2d" d="M26.091 120.267l26.793-40.017 9.914 10.253z"/><path fill="#a03c24" d="M43.306 70.593l9.53 9.609-22.745 28.19z"/><path fill="#676b38" d="M52.452 80.78l-26.396 39.424 3.971-11.633z"/><path d="M43.199 70.706l-13.22 37.808-12.172-5.149c.476-.804 23.536-30.288 25.392-32.659z" fill="#b85832"/><path fill="#999846" d="M71.539 29.09l-3.942 28.342-24.204 13.012z"/><path fill="#da5e2a" d="M71.483 29.058l-28.16 41.375-.42-24.5z"/><path fill="#534a2d" d="M71.432 28.99L16.854 45.034 28.096 28.99z"/><path fill="#67693a" d="M71.289 29.099L27.29 55.078.275 49.776l16.421-4.629.083-.023.004-.002.053-.015z"/><path fill="#ef7a2a" d="M42.841 45.972l.42 24.521-28.962-7.859 13.015-7.494.073-.043z"/><path fill="#67693a" d="M28.017 28.99L16.771 45.042.218 28.99z"/><path d="M127.919 22.086l-5.463-1.124.631 9.383 4.832-8.26zm.017-.062v-7.571l-5.454 6.454 5.454 1.117zm-56.319 6.97l-3.939 28.32h.002l-.004.03L89.118 31.48l-17.5-2.486zM16.771 45.042L28.017 28.99H.218l16.553 16.052zm69.992 2.102l-3.587 19.259 26.962-31.896-23.374 12.637zM83.097 66.48l3.594-19.297-18.997 10.27 15.404 9.027zm13.717 15.502l13.395-47.458-27.049 32 13.655 15.458zm13.281-47.524l-20.902-2.968-21.435 25.856 42.338-22.888zM71.432 28.99H28.096L16.854 45.034 71.432 28.99zm.265-.049l17.466 2.482L97.176 16.4 71.697 28.941zm25.505-12.626L88.723 4.848 71.688 28.875l25.513-12.56zM42.903 45.934l.42 24.5 28.16-41.375-28.581 16.875zM27.314 55.14l-13.015 7.494 28.962 7.859-.42-24.521-15.455 9.125-.073.043zm-.024-.062l43.999-25.979-54.452 16.008-.053.015h-.004l-.083.026L.275 49.776l27.015 5.303zm16.016 15.515l-13.215 37.8 22.745-28.19-9.53-9.609zM29.98 108.514l13.22-37.808-25.392 32.659c.35.303 8.849 3.797 12.172 5.149zM52.452 80.78l-22.425 27.792-3.971 11.633L52.452 80.78zm15.082-23.24l-.036.019-24.15 12.982 9.527 9.607 14.659-22.609zM107.23.126l11.428 9.326.017-.047.011.03 2.976-4.126L107.23.126zM62.932 90.449l33.838-8.42-13.655-15.455-20.183 23.875zm-.041-.051l20.173-23.864-15.412-9.029-4.761 32.894zM43.393 70.444l24.204-13.012 3.942-28.342-28.145 41.354zm67.83-58.6l-5.179-4.292-17.249-2.714 8.465 11.449.064-.032-.008.017 13.906-4.428zM62.798 90.503l-9.914-10.253-26.793 40.017 36.707-29.764zm4.778-32.911L52.921 80.196h.002l9.899 10.238 4.754-32.843zm51.153-48.021l3.706 11.292 5.463-6.462-9.169-4.829zm2.984-4.224l-2.982 4.134.083.013-.058.017 9.127 4.808-6.171-8.972zM108.03 67.538l2.184-32.8-13.311 47.159 11.127-14.36zM89.231 31.431l20.964 2.979-12.94-18.023-8.024 15.044zm21.019 2.944l3.886-11.581-16.784-6.379 12.897 17.961zm1.011-22.583l.241-3.384-5.334-.838 5.093 4.222zm7.275-2.277l-6.97-1.096-.243 3.392 7.213-2.296zM88.881 4.787l29.681 4.667L107.06.068 88.881 4.787zm33.512 16.18l-8.192 1.836-3.903 11.635-2.205 33.124-.004.006-11.229 14.494-.015.051-.026-.03-33.945 8.447-.006.043-.023-.026L25.88 120.52l.036-.107 3.993-11.697.049-.143-6.087-2.503c-6.134-2.548-6.134-2.652-6.134-2.703 0-.213 21.169-27.278 25.501-32.815l-29.105-7.897.066-.038 13.008-7.49L0 49.788l.13-.038 16.583-4.676L.06 28.926h71.513l.066-.094L88.685 4.795l-.034-.045.07.013L107.068 0h.009l14.655 5.266.006.009L128 14.379v7.695l-.005.006-4.958 8.477-.006-.104-.638-9.486zm-5.978-4.893l-5.134-4.181-13.955 4.443c.83.409 11.245 4.317 16.83 6.398l2.259-6.661zm.021-.064l2.188-6.456-7.271 2.315 5.083 4.14zm5.916 4.902l-5.884-4.795-2.244 6.616 8.128-1.821zm-5.863-4.859l5.87 4.782-3.686-11.23-2.184 6.447z" fill="#494830"/></svg>